<svg height="512" viewBox="0 0 448 512" width="448" xmlns="http://www.w3.org/2000/svg"><path d="m48 32c-26.5 0-48 21.5-48 48v352c0 26.5 21.5 48 48 48h352c26.5 0 48-21.5 48-48v-352c0-26.5-21.5-48-48-48zm155.54297 64.003906c17.34542.222487 23.95716 10.979024 27.23047 22.859374 5.8709.45173 11.29255 1.34504 16.25781 2.23828.90563-2.69065 3.61663-4.96094 6.77539-4.96094 4.06256 0 6.77539 3.17475 6.77539 6.76954v1.80664c9.48139 3.16241 18.51052 7.67465 26.64258 12.64648 1.35587-1.80799 3.15938-2.71289 5.41797-2.71289 4.06402 0 6.77734 3.16497 6.77734 6.79297 0 1.78645-.45215 3.14075-1.35742 4.04492 7.67997 6.34013 14.00302 14.0034 19.875 22.12891.89872-.45209 2.25402-.9043 3.1582-.9043 4.06256 0 7.22852 3.16529 7.22852 6.78125 0 2.72272-1.35517 4.95999-3.61524 5.86524 4.51976 8.14774 8.12927 17.17881 10.83594 26.63867.45209-.4415 1.35651-.44336 1.8086-.44336 4.06407 0 6.77539 3.16417 6.77539 6.76953 0 3.61633-2.25963 6.33061-4.96485 6.78125 1.80687 9.4719 3.15784 18.96387 4.06055 28.89844 4.06258 0 7.22851 3.15327 7.22851 6.78125.00001 4.056-3.16452 6.75804-6.77539 7.2207 0 9.48248-.45275 19.86816-1.35546 29.80273 3.61594.45172 6.32226 3.6059 6.32226 7.23243 0 3.60537-3.16045 6.77148-7.22851 6.77148h-.44532c-1.80797 9.93348-3.61649 19.86676-5.87109 30.25195l-.00195.00196h18.96484v13.09765h-213.15625v-13.09765h18.06641c3.15876-42.44785 43.80459-58.23507 66.38476-92.56836h-26.1914c-12.64782 4.50919-31.61524 32.52411-31.61524 48.76562h-32.9668l.45118-13.55078-10.83789 9.04102-28.904301-33.40821s-1.355469-1.82068-1.355469-3.1875c0-1.34532.453125-2.24804.453125-2.24804l45.611325-61.85352 8.13282-24.38867 12.19335-4.53125 12.64258-17.5957-4.51758-30.72852c12.19354-4.51063 23.93834-.45267 29.81836 5.42188.44004-9.01764-.46484-18.951177-.46484-18.951177 2.03226-.212872 3.94198-.302313 5.73633-.279297zm7.36719 14.259764s-.00123 16.26078-3.61719 32.52344l-12.19336-2.24805c0-11.29227-4.96746-15.82101-11.74219-18.98633l3.16211 22.12891-7.67773 11.29102 3.61523 10.39453-23.93555 8.12695-6.77539 19.41602-42 57.80664 15.8086 18.96484 17.61328-14.89453 4.0625 2.69922v22.13086h9.48047c4.06402-15.79998 17.16086-34.32277 29.35547-43.35352l-6.77344-8.12695 9.93359-8.56641 9.48633 11.73242s33.87109.00011 33.87109-.4414c4.96781-10.84821 8.125-23.95874 8.125-39.30664h13.09961c0 51.49902-25.73853 71.79792-57.80664 103.41797-11.74145 11.7305-22.12849 24.38903-23.48437 41.54492h149.03125c26.19102-107.93889-4.5144-193.72977-88.0586-203.67383.4466 4.52014.44532 8.14884.44532 11.74219 0 5.42538-.44532 9.93359-.44532 9.93359l-13.09961-2.23828c.46411-4.53176 1.35826-35.2374-9.48046-42.01758zm-26.19727 68.19141.45117 8.14844-20.32031 10.83789-1.35547-16.72657zm-59.60937 57.80469 8.125.45312c.45319 5.87601-.45256 14.90683-3.61133 19.41602v.00195l-9.48047-3.60547c3.15731-4.52013 4.9668-10.84023 4.9668-16.26562zm15.80468 153.5664h212.70508v26.17383h-212.70508z"/></svg>