<?xml version="1.0" encoding="UTF-8" standalone="no"?>
<svg
   viewBox="0 0 181.16 180.19"
   version="1.1"
   id="svg3035"
   sodipodi:docname="ResultsReplicatedETAPS_semibold_outer.svg"
   inkscape:version="1.2.2 (b0a8486541, 2022-12-01)"
   xmlns:inkscape="http://www.inkscape.org/namespaces/inkscape"
   xmlns:sodipodi="http://sodipodi.sourceforge.net/DTD/sodipodi-0.dtd"
   xmlns="http://www.w3.org/2000/svg"
   xmlns:svg="http://www.w3.org/2000/svg">
  <sodipodi:namedview
     id="namedview3037"
     pagecolor="#ffffff"
     bordercolor="#999999"
     borderopacity="1"
     inkscape:showpageshadow="0"
     inkscape:pageopacity="0"
     inkscape:pagecheckerboard="true"
     inkscape:deskcolor="#d1d1d1"
     showgrid="false"
     inkscape:zoom="2.4168932"
     inkscape:cx="-193.01639"
     inkscape:cy="88.543424"
     inkscape:window-width="1916"
     inkscape:window-height="783"
     inkscape:window-x="0"
     inkscape:window-y="0"
     inkscape:window-maximized="1"
     inkscape:current-layer="svg3035" />
  <defs
     id="defs2970">
    <style
       id="style2968">.cls-1,.cls-3,.cls-5{fill:#0361dc;}.cls-2{fill:none;stroke-width:5px;}.cls-2,.cls-5{stroke:#0361dc;}.cls-2,.cls-3,.cls-5{stroke-miterlimit:10;}.cls-3{stroke:#fff;}.cls-4,.cls-6{fill:#fff;}.cls-6{font-size:20px;font-family:MyriadPro-Semibold, Myriad Pro;font-weight:600;}</style>
  </defs>
  <g
     id="Layer_1"
     data-name="Layer 1">
    <g
       id="BADGE">
      <path
         id="polygon2972"
         class="cls-1"
         style="fill:#0361dc"
         d="m 163.24,113.7 6.33,11.57 -12.83,3.01 3.78,12.63 -13.18,0.29 1.09,13.14 -12.96,-2.45 -1.66,13.08 -12.16,-5.09 -4.35,12.46 -10.83,-7.53 -6.86,11.27 -9.03,-9.61 -9.03,9.61 -6.86,-11.27 -10.83,7.53 -4.35,-12.46 -12.17,5.09 -1.65,-13.08 -12.96,2.45 1.09,-13.15 -13.19,-0.28 3.79,-12.63 L 11.58,125.27 17.92,113.7 6,108.07 14.62,98.08 4.13,90.09 14.62,82.1 6,72.12 17.92,66.48 11.58,54.92 24.42,51.9 20.64,39.27 33.82,38.99 32.73,25.84 45.69,28.3 47.34,15.21 59.51,20.3 63.86,7.85 l 10.83,7.52 6.86,-11.26 9.03,9.61 9.03,-9.61 6.86,11.26 10.83,-7.52 4.35,12.45 12.17,-5.09 1.65,13.09 12.96,-2.45 -1.09,13.14 13.19,0.28 -3.79,12.64 12.84,3.01 -6.34,11.56 11.92,5.64 -8.62,9.98 10.49,7.99 -10.49,7.99 8.62,9.99 z" />
      <path
         id="polygon2974"
         class="cls-2"
         style="fill:none;stroke:#0361dc;stroke-width:5px;stroke-miterlimit:10"
         d="m 163.24,113.7 6.33,11.57 -12.83,3.01 3.78,12.63 -13.18,0.29 1.09,13.14 -12.96,-2.45 -1.66,13.08 -12.16,-5.09 -4.35,12.46 -10.83,-7.53 -6.86,11.27 -9.03,-9.61 -9.03,9.61 -6.86,-11.27 -10.83,7.53 -4.35,-12.46 -12.17,5.09 -1.65,-13.08 -12.96,2.45 1.09,-13.15 -13.19,-0.28 3.79,-12.63 L 11.58,125.27 17.92,113.7 6,108.07 14.62,98.08 4.13,90.09 14.62,82.1 6,72.12 17.92,66.48 11.58,54.92 24.42,51.9 20.64,39.27 33.82,38.99 32.73,25.84 45.69,28.3 47.34,15.21 59.51,20.3 63.86,7.85 l 10.83,7.52 6.86,-11.26 9.03,9.61 9.03,-9.61 6.86,11.26 10.83,-7.52 4.35,12.45 12.17,-5.09 1.65,13.09 12.96,-2.45 -1.09,13.14 13.19,0.28 -3.79,12.64 12.84,3.01 -6.34,11.56 11.92,5.64 -8.62,9.98 10.49,7.99 -10.49,7.99 8.62,9.99 z" />
      <path
         id="circle2976"
         class="cls-3"
         style="fill:#0361dc;stroke:#ffffff;stroke-miterlimit:10"
         d="M 167.09,90.089996 A 76.510002,76.510002 0 0 1 90.580002,166.6 76.510002,76.510002 0 0 1 14.07,90.089996 76.510002,76.510002 0 0 1 90.580002,13.579994 76.510002,76.510002 0 0 1 167.09,90.089996 Z" />
      <path
         id="circle2978"
         class="cls-4"
         transform="rotate(-75.86,90.580926,90.092372)"
         style="fill:#ffffff"
         d="M 160.59,90.089996 A 70.010002,70.010002 0 0 1 90.580002,160.1 70.010002,70.010002 0 0 1 20.57,90.089996 70.010002,70.010002 0 0 1 90.580002,20.079994 70.010002,70.010002 0 0 1 160.59,90.089996 Z" />
      <path
         id="circle2980"
         class="cls-5"
         style="fill:#0361dc;stroke:#0361dc;stroke-miterlimit:10"
         d="M 159.27,90.089996 A 68.690002,68.690002 0 0 1 90.580002,158.78 68.690002,68.690002 0 0 1 21.889999,90.089996 68.690002,68.690002 0 0 1 90.580002,21.399994 68.690002,68.690002 0 0 1 159.27,90.089996 Z" />
      <g
         aria-label="V"
         transform="rotate(12.13,-676.09495,406.77073)"
         id="text2982"
         class="cls-6"
         style="font-weight:600;font-size:20px;font-family:MyriadPro-Semibold, 'Myriad Pro';fill:#ffffff">
        <path
           d="M 12.62,-14.28 7.68,0 H 4.94 L 0,-14.28 h 2.62 l 2.88,8.74 q 0.12,0.36 0.28,0.94 0.16,0.56 0.3,1.16 0.16,0.6 0.24,1.04 0.06,-0.44 0.2,-1.04 0.14,-0.6 0.3,-1.16 0.16,-0.58 0.3,-0.94 L 10,-14.28 Z"
           id="path43" />
      </g>
      <g
         aria-label="1"
         transform="rotate(1.54,-5678.6243,3178.1064)"
         id="text2984"
         class="cls-6"
         style="font-weight:600;font-size:20px;font-family:MyriadPro-Semibold, 'Myriad Pro';fill:#ffffff">
        <path
           d="M 7.82,0 H 5.3 v -8.9 q 0,-0.64 0.02,-1.36 0.02,-0.72 0.06,-1.34 -0.2,0.2 -0.5,0.48 -0.3,0.26 -0.62,0.54 l -1.6,1.28 -1.26,-1.56 4.32,-3.42 h 2.1 z"
           id="path46" />
      </g>
      <g
         aria-label="."
         transform="matrix(1,-0.1,0.1,1,94.82,153.84)"
         id="text2986"
         class="cls-6"
         style="font-weight:600;font-size:20px;font-family:MyriadPro-Semibold, 'Myriad Pro';fill:#ffffff">
        <path
           d="m 1.26,-1.28 q 0,-0.84 0.44,-1.18 0.44,-0.36 1.08,-0.36 0.62,0 1.08,0.36 0.46,0.34 0.46,1.18 0,0.82 -0.46,1.18 Q 3.4,0.26 2.78,0.26 2.14,0.26 1.7,-0.1 1.26,-0.46 1.26,-1.28 Z"
           id="path49" />
      </g>
      <g
         aria-label="1"
         transform="rotate(-12.71,739.07273,-373.74421)"
         id="text2988"
         class="cls-6"
         style="font-weight:600;font-size:20px;font-family:MyriadPro-Semibold, 'Myriad Pro';fill:#ffffff">
        <path
           d="M 7.82,0 H 5.3 v -8.9 q 0,-0.64 0.02,-1.36 0.02,-0.72 0.06,-1.34 -0.2,0.2 -0.5,0.48 -0.3,0.26 -0.62,0.54 l -1.6,1.28 -1.26,-1.56 4.32,-3.42 h 2.1 z"
           id="path52" />
      </g>
      <g
         aria-label="R"
         transform="rotate(-79.92,71.272366,17.985679)"
         id="text2990"
         class="cls-6"
         style="font-weight:600;font-size:20px;font-family:MyriadPro-Semibold, 'Myriad Pro';fill:#ffffff">
        <path
           d="m 5.92,-14.28 q 2.82,0 4.16,1.04 1.36,1.04 1.36,3.16 0,1.04 -0.4,1.78 -0.38,0.74 -1,1.24 -0.62,0.48 -1.34,0.78 L 12.8,0 H 9.92 L 6.5,-5.64 H 4.42 V 0 H 1.86 v -14.28 z m -0.16,2.14 H 4.42 v 4.4 h 1.42 q 1.58,0 2.28,-0.56 0.72,-0.58 0.72,-1.7 0,-1.16 -0.76,-1.64 -0.74,-0.5 -2.32,-0.5 z"
           id="path55" />
      </g>
      <g
         aria-label="e"
         transform="rotate(-67.97,76.669842,5.3415997)"
         id="text2992"
         class="cls-6"
         style="font-weight:600;font-size:20px;font-family:MyriadPro-Semibold, 'Myriad Pro';fill:#ffffff">
        <path
           d="m 5.98,-11.04 q 2.18,0 3.44,1.3 1.28,1.3 1.28,3.62 v 1.28 H 3.54 q 0.04,1.48 0.82,2.3 0.78,0.8 2.16,0.8 1.04,0 1.88,-0.2 0.84,-0.22 1.72,-0.62 v 2.02 Q 9.32,-0.16 8.46,0.02 7.6,0.2 6.4,0.2 4.82,0.2 3.58,-0.4 2.36,-1.02 1.66,-2.26 0.98,-3.5 0.98,-5.34 q 0,-2.78 1.38,-4.24 1.38,-1.46 3.62,-1.46 z m 0,1.86 q -1.02,0 -1.66,0.66 Q 3.7,-7.88 3.6,-6.6 H 8.26 Q 8.24,-7.72 7.68,-8.44 7.14,-9.18 5.98,-9.18 Z"
           id="path58" />
      </g>
      <g
         aria-label="s"
         transform="rotate(-57.79,82.573168,-9.561881)"
         id="text2994"
         class="cls-6"
         style="font-weight:600;font-size:20px;font-family:MyriadPro-Semibold, 'Myriad Pro';fill:#ffffff">
        <path
           d="M 9,-3.14 Q 9,-1.5 7.82,-0.64 6.66,0.2 4.48,0.2 3.34,0.2 2.52,0.04 1.72,-0.12 0.96,-0.46 V -2.6 q 0.8,0.38 1.76,0.64 0.98,0.26 1.84,0.26 1.04,0 1.5,-0.32 0.46,-0.32 0.46,-0.86 0,-0.32 -0.18,-0.56 Q 6.16,-3.7 5.62,-4 5.1,-4.3 4.06,-4.74 3.02,-5.14 2.32,-5.56 1.64,-6 1.28,-6.58 0.94,-7.16 0.94,-8.08 q 0,-1.46 1.14,-2.2 1.16,-0.76 3.08,-0.76 1,0 1.88,0.2 0.9,0.2 1.8,0.6 l -0.8,1.86 Q 7.28,-8.7 6.56,-8.92 5.84,-9.14 5.08,-9.14 q -1.66,0 -1.66,0.94 0,0.34 0.2,0.58 0.22,0.24 0.74,0.52 0.54,0.26 1.52,0.64 0.96,0.38 1.66,0.8 0.7,0.4 1.08,1 Q 9,-4.06 9,-3.14 Z"
           id="path61" />
      </g>
      <g
         aria-label="u"
         transform="matrix(0.68,-0.73,0.73,0.68,50.62,58.73)"
         id="text2996"
         class="cls-6"
         style="font-weight:600;font-size:20px;font-family:MyriadPro-Semibold, 'Myriad Pro';fill:#ffffff">
        <path
           d="M 11.24,-10.84 V 0 H 9.26 L 8.92,-1.4 H 8.8 Q 8.26,-0.56 7.34,-0.18 6.44,0.2 5.42,0.2 3.6,0.2 2.56,-0.74 1.54,-1.68 1.54,-3.76 v -7.08 h 2.52 v 6.58 q 0,2.42 2,2.42 1.52,0 2.08,-0.94 0.58,-0.96 0.58,-2.76 v -5.3 z"
           id="path64" />
      </g>
      <g
         aria-label="l"
         transform="rotate(-38.16,102.69664,-58.593474)"
         id="text2998"
         class="cls-6"
         style="font-weight:600;font-size:20px;font-family:MyriadPro-Semibold, 'Myriad Pro';fill:#ffffff">
        <path
           d="M 4.14,0 H 1.62 v -15.2 h 2.52 z"
           id="path67" />
      </g>
      <g
         aria-label="t"
         transform="rotate(-31.56,115.72349,-85.449728)"
         id="text3000"
         class="cls-6"
         style="font-weight:600;font-size:20px;font-family:MyriadPro-Semibold, 'Myriad Pro';fill:#ffffff">
        <path
           d="m 5.82,-1.82 q 0.46,0 0.9,-0.08 0.46,-0.1 0.84,-0.22 v 1.88 Q 7.16,-0.06 6.52,0.06 5.88,0.2 5.18,0.2 4.26,0.2 3.5,-0.1 2.74,-0.42 2.3,-1.18 1.86,-1.94 1.86,-3.3 V -8.94 H 0.4 v -1.1 l 1.6,-0.88 0.8,-2.3 h 1.58 v 2.38 h 3.08 v 1.9 H 4.38 v 5.62 q 0,0.76 0.4,1.14 0.4,0.36 1.04,0.36 z"
           id="path70" />
      </g>
      <g
         aria-label="s"
         transform="rotate(-23.19,141.95601,-141.95826)"
         id="text3002"
         class="cls-6"
         style="font-weight:600;font-size:20px;font-family:MyriadPro-Semibold, 'Myriad Pro';fill:#ffffff">
        <path
           d="M 9,-3.14 Q 9,-1.5 7.82,-0.64 6.66,0.2 4.48,0.2 3.34,0.2 2.52,0.04 1.72,-0.12 0.96,-0.46 V -2.6 q 0.8,0.38 1.76,0.64 0.98,0.26 1.84,0.26 1.04,0 1.5,-0.32 0.46,-0.32 0.46,-0.86 0,-0.32 -0.18,-0.56 Q 6.16,-3.7 5.62,-4 5.1,-4.3 4.06,-4.74 3.02,-5.14 2.32,-5.56 1.64,-6 1.28,-6.58 0.94,-7.16 0.94,-8.08 q 0,-1.46 1.14,-2.2 1.16,-0.76 3.08,-0.76 1,0 1.88,0.2 0.9,0.2 1.8,0.6 l -0.8,1.86 Q 7.28,-8.7 6.56,-8.92 5.84,-9.14 5.08,-9.14 q -1.66,0 -1.66,0.94 0,0.34 0.2,0.58 0.22,0.24 0.74,0.52 0.54,0.26 1.52,0.64 0.96,0.38 1.66,0.8 0.7,0.4 1.08,1 Q 9,-4.06 9,-3.14 Z"
           id="path73" />
      </g>
      <g
         transform="rotate(-16.34,181.53778,-239.49071)"
         id="text3004"
         class="cls-6"
         style="font-weight:600;font-size:20px;font-family:MyriadPro-Semibold, 'Myriad Pro';fill:#ffffff" />
      <g
         aria-label="R"
         transform="rotate(-7.88,330.0287,-547.15047)"
         id="text3006"
         class="cls-6"
         style="font-weight:600;font-size:20px;font-family:MyriadPro-Semibold, 'Myriad Pro';fill:#ffffff">
        <path
           d="m 5.92,-14.28 q 2.82,0 4.16,1.04 1.36,1.04 1.36,3.16 0,1.04 -0.4,1.78 -0.38,0.74 -1,1.24 -0.62,0.48 -1.34,0.78 L 12.8,0 H 9.92 L 6.5,-5.64 H 4.42 V 0 H 1.86 v -14.28 z m -0.16,2.14 H 4.42 v 4.4 h 1.42 q 1.58,0 2.28,-0.56 0.72,-0.58 0.72,-1.7 0,-1.16 -0.76,-1.64 -0.74,-0.5 -2.32,-0.5 z"
           id="path77" />
      </g>
      <g
         aria-label="e"
         transform="rotate(3.9,-522.44734,1323.8177)"
         id="text3008"
         class="cls-6"
         style="font-weight:600;font-size:20px;font-family:MyriadPro-Semibold, 'Myriad Pro';fill:#ffffff">
        <path
           d="m 5.98,-11.04 q 2.18,0 3.44,1.3 1.28,1.3 1.28,3.62 v 1.28 H 3.54 q 0.04,1.48 0.82,2.3 0.78,0.8 2.16,0.8 1.04,0 1.88,-0.2 0.84,-0.22 1.72,-0.62 v 2.02 Q 9.32,-0.16 8.46,0.02 7.6,0.2 6.4,0.2 4.82,0.2 3.58,-0.4 2.36,-1.02 1.66,-2.26 0.98,-3.5 0.98,-5.34 q 0,-2.78 1.38,-4.24 1.38,-1.46 3.62,-1.46 z m 0,1.86 q -1.02,0 -1.66,0.66 Q 3.7,-7.88 3.6,-6.6 H 8.26 Q 8.24,-7.72 7.68,-8.44 7.14,-9.18 5.98,-9.18 Z"
           id="path80" />
      </g>
      <g
         aria-label="p"
         transform="rotate(15.9,-90.792598,372.11234)"
         id="text3010"
         class="cls-6"
         style="font-weight:600;font-size:20px;font-family:MyriadPro-Semibold, 'Myriad Pro';fill:#ffffff">
        <path
           d="m 7.32,-11.04 q 1.9,0 3.06,1.42 1.16,1.4 1.16,4.18 0,2.78 -1.2,4.22 Q 9.16,0.2 7.26,0.2 6.06,0.2 5.32,-0.24 4.58,-0.68 4.14,-1.26 H 3.98 q 0.06,0.38 0.1,0.84 0.06,0.44 0.06,0.82 V 4.8 H 1.62 v -15.64 h 2.04 l 0.36,1.44 h 0.12 q 0.44,-0.68 1.2,-1.16 0.76,-0.48 1.98,-0.48 z M 6.6,-9 q -1.34,0 -1.9,0.8 -0.54,0.8 -0.56,2.42 v 0.32 q 0,1.74 0.52,2.68 0.54,0.92 1.98,0.92 1.18,0 1.74,-0.96 0.58,-0.98 0.58,-2.66 0,-1.68 -0.58,-2.6 Q 7.82,-9 6.6,-9 Z"
           id="path83" />
      </g>
      <g
         aria-label="l"
         transform="matrix(0.91,0.42,-0.42,0.91,109.14,42.38)"
         id="text3012"
         class="cls-6"
         style="font-weight:600;font-size:20px;font-family:MyriadPro-Semibold, 'Myriad Pro';fill:#ffffff">
        <path
           d="M 4.14,0 H 1.62 v -15.2 h 2.52 z"
           id="path86" />
      </g>
      <g
         aria-label="i"
         transform="rotate(30.72,-24.080127,228.81602)"
         id="text3014"
         class="cls-6"
         style="font-weight:600;font-size:20px;font-family:MyriadPro-Semibold, 'Myriad Pro';fill:#ffffff">
        <path
           d="m 2.88,-15.02 q 0.58,0 0.98,0.3 0.42,0.28 0.42,1.02 0,0.74 -0.42,1.04 -0.4,0.3 -0.98,0.3 -0.58,0 -1,-0.3 -0.4,-0.3 -0.4,-1.04 0,-0.74 0.4,-1.02 0.42,-0.3 1,-0.3 z m 1.26,4.18 V 0 H 1.62 v -10.84 z"
           id="path89" />
      </g>
      <g
         aria-label="c"
         transform="matrix(0.78,0.62,-0.62,0.78,117.62,46.67)"
         id="text3016"
         class="cls-6"
         style="font-weight:600;font-size:20px;font-family:MyriadPro-Semibold, 'Myriad Pro';fill:#ffffff">
        <path
           d="m 6,0.2 q -2.34,0 -3.68,-1.34 -1.34,-1.34 -1.34,-4.22 0,-2 0.66,-3.24 0.68,-1.26 1.86,-1.84 1.18,-0.6 2.7,-0.6 1.02,0 1.82,0.2 0.8,0.2 1.36,0.48 L 8.64,-8.38 Q 8.02,-8.62 7.4,-8.78 6.78,-8.96 6.2,-8.96 q -2.64,0 -2.64,3.58 0,1.74 0.66,2.62 0.68,0.88 1.94,0.88 0.9,0 1.6,-0.22 0.7,-0.22 1.34,-0.6 v 2.18 Q 8.48,-0.16 7.76,0.02 7.06,0.2 6,0.2 Z"
           id="path92" />
      </g>
      <g
         aria-label="a"
         transform="rotate(48.72,4.9386925,163.11438)"
         id="text3018"
         class="cls-6"
         style="font-weight:600;font-size:20px;font-family:MyriadPro-Semibold, 'Myriad Pro';fill:#ffffff">
        <path
           d="m 5.94,-11.04 q 2.1,0 3.18,0.92 1.1,0.92 1.1,2.84 V 0 H 8.44 L 7.94,-1.5 H 7.86 Q 7.16,-0.62 6.38,-0.2 5.6,0.2 4.26,0.2 2.8,0.2 1.84,-0.62 0.88,-1.44 0.88,-3.16 q 0,-1.68 1.22,-2.52 1.24,-0.84 3.74,-0.94 l 1.88,-0.06 v -0.54 q 0,-1.02 -0.5,-1.46 -0.5,-0.46 -1.4,-0.46 -0.82,0 -1.58,0.24 -0.74,0.24 -1.48,0.56 l -0.8,-1.76 q 0.8,-0.42 1.82,-0.68 1.04,-0.26 2.16,-0.26 z M 6.4,-5.08 Q 4.74,-5.02 4.1,-4.5 3.46,-4 3.46,-3.14 q 0,0.78 0.44,1.12 0.46,0.32 1.2,0.32 1.1,0 1.86,-0.62 0.76,-0.64 0.76,-1.88 v -0.92 z"
           id="path95" />
      </g>
      <g
         aria-label="t"
         transform="rotate(57.9,11.923968,147.41964)"
         id="text3020"
         class="cls-6"
         style="font-weight:600;font-size:20px;font-family:MyriadPro-Semibold, 'Myriad Pro';fill:#ffffff">
        <path
           d="m 5.82,-1.82 q 0.46,0 0.9,-0.08 0.46,-0.1 0.84,-0.22 v 1.88 Q 7.16,-0.06 6.52,0.06 5.88,0.2 5.18,0.2 4.26,0.2 3.5,-0.1 2.74,-0.42 2.3,-1.18 1.86,-1.94 1.86,-3.3 V -8.94 H 0.4 v -1.1 l 1.6,-0.88 0.8,-2.3 h 1.58 v 2.38 h 3.08 v 1.9 H 4.38 v 5.62 q 0,0.76 0.4,1.14 0.4,0.36 1.04,0.36 z"
           id="path98" />
      </g>
      <g
         aria-label="e"
         transform="rotate(67.25,18.671137,132.92026)"
         id="text3022"
         class="cls-6"
         style="font-weight:600;font-size:20px;font-family:MyriadPro-Semibold, 'Myriad Pro';fill:#ffffff">
        <path
           d="m 5.98,-11.04 q 2.18,0 3.44,1.3 1.28,1.3 1.28,3.62 v 1.28 H 3.54 q 0.04,1.48 0.82,2.3 0.78,0.8 2.16,0.8 1.04,0 1.88,-0.2 0.84,-0.22 1.72,-0.62 v 2.02 Q 9.32,-0.16 8.46,0.02 7.6,0.2 6.4,0.2 4.82,0.2 3.58,-0.4 2.36,-1.02 1.66,-2.26 0.98,-3.5 0.98,-5.34 q 0,-2.78 1.38,-4.24 1.38,-1.46 3.62,-1.46 z m 0,1.86 q -1.02,0 -1.66,0.66 Q 3.7,-7.88 3.6,-6.6 H 8.26 Q 8.24,-7.72 7.68,-8.44 7.14,-9.18 5.98,-9.18 Z"
           id="path101" />
      </g>
      <g
         aria-label="d"
         transform="rotate(79.24,24.776908,119.84598)"
         id="text3024"
         class="cls-6"
         style="font-weight:600;font-size:20px;font-family:MyriadPro-Semibold, 'Myriad Pro';fill:#ffffff">
        <path
           d="M 5.2,0.2 Q 3.3,0.2 2.14,-1.22 0.98,-2.64 0.98,-5.4 q 0,-2.8 1.18,-4.22 1.18,-1.42 3.1,-1.42 1.2,0 1.96,0.46 0.78,0.46 1.24,1.12 H 8.58 Q 8.52,-9.74 8.46,-10.32 8.4,-10.9 8.4,-11.4 v -3.8 h 2.52 V 0 H 8.96 L 8.5,-1.42 H 8.4 Q 7.94,-0.74 7.18,-0.26 6.42,0.2 5.2,0.2 Z m 0.76,-2.04 q 1.4,0 1.96,-0.8 0.58,-0.8 0.6,-2.42 v -0.32 q 0,-1.74 -0.56,-2.66 -0.54,-0.94 -2.04,-0.94 -1.16,0 -1.78,0.96 -0.6,0.94 -0.6,2.66 0,1.72 0.62,2.62 0.62,0.9 1.8,0.9 z"
           id="path104" />
      </g>
    </g>
  </g>
  <path
     class="cls-4"
     d="m 90.58,55.560511 v 0 c -19.153309,-0.08302 -34.747336,15.37669 -34.83,34.53 v 0 c 0.08267,19.154909 15.675067,34.617479 34.83,34.539999 v 0 c 19.15493,0.0775 34.74733,-15.38509 34.83,-34.539999 v 0 c -0.0827,-19.15331 -15.67669,-34.613022 -34.83,-34.53 z"
     id="path2354"
     sodipodi:nodetypes="sssssssss"
     style="fill:#ffffff" />
  <g
     aria-label="ETAPS"
     id="text933"
     style="font-size:20px;line-height:125%;font-family:Sans;text-align:center;letter-spacing:0px;word-spacing:0px;text-anchor:middle;fill:#0361dc;stroke-width:1px">
    <path
       d="m 70.719993,97.235489 h -8.22 v -14.28 h 8.22 v 2.48 h -5.2 v 3.14 h 4.84 v 2.48 h -4.84 v 3.68 h 5.2 z"
       style="font-weight:bold;font-family:MyriadPro-Semibold, 'Myriad Pro';-inkscape-font-specification:'MyriadPro-Semibold, Myriad Pro Bold'"
       id="path107" />
    <path
       d="m 79.199982,97.235489 h -3.02 v -11.76 h -3.88 v -2.52 h 10.78 v 2.52 h -3.88 z"
       style="font-weight:bold;font-family:MyriadPro-Semibold, 'Myriad Pro';-inkscape-font-specification:'MyriadPro-Semibold, Myriad Pro Bold'"
       id="path109" />
    <path
       d="m 92.619998,97.235489 -1.04,-3.4 h -5.2 l -1.04,3.4 h -3.26 l 5.04,-14.34 h 3.7 l 5.06,14.34 z m -2.8,-9.26 q -0.1,-0.34 -0.26,-0.86 -0.16,-0.52 -0.32,-1.06 -0.16,-0.54 -0.26,-0.94 -0.1,0.4 -0.28,1 -0.16,0.58 -0.32,1.12 -0.14,0.52 -0.22,0.74 l -1.02,3.32 h 3.72 z"
       style="font-weight:bold;font-family:MyriadPro-Semibold, 'Myriad Pro';-inkscape-font-specification:'MyriadPro-Semibold, Myriad Pro Bold'"
       id="path111" />
    <path
       d="m 102.24001,82.955489 q 2.76,0 4.02,1.2 1.28,1.18 1.28,3.26 0,1.24 -0.52,2.34 -0.52,1.08 -1.74,1.74 -1.2,0.66 -3.28,0.66 h -1.3 v 5.08 h -3.020001 v -14.28 z m -0.16,2.48 h -1.38 v 4.24 h 1 q 1.28,0 2.02,-0.5 0.76,-0.52 0.76,-1.66 0,-2.08 -2.4,-2.08 z"
       style="font-weight:bold;font-family:MyriadPro-Semibold, 'Myriad Pro';-inkscape-font-specification:'MyriadPro-Semibold, Myriad Pro Bold'"
       id="path113" />
    <path
       d="m 118.66001,93.275489 q 0,1.9 -1.38,3.04 -1.36,1.12 -3.88,1.12 -2.26,0 -4.04,-0.86 v -2.82 q 1.02,0.44 2.1,0.82 1.1,0.36 2.18,0.36 1.12,0 1.58,-0.42 0.48,-0.44 0.48,-1.1 0,-0.54 -0.38,-0.92 -0.36,-0.38 -0.98,-0.7 -0.62,-0.34 -1.42,-0.72 -0.5,-0.24 -1.08,-0.56 -0.58,-0.34 -1.12,-0.82 -0.52,-0.5 -0.86,-1.2 -0.34,-0.7 -0.34,-1.68 0,-1.92 1.3,-2.98 1.3,-1.08 3.54,-1.08 1.12,0 2.12,0.26 1.02,0.26 2.12,0.74 l -0.98,2.36 q -0.98,-0.4 -1.76,-0.62 -0.78,-0.22 -1.6,-0.22 -0.86,0 -1.32,0.4 -0.46,0.4 -0.46,1.04 0,0.76 0.68,1.2 0.68,0.44 2.02,1.08 1.1,0.52 1.86,1.08 0.78,0.56 1.2,1.32 0.42,0.76 0.42,1.88 z"
       style="font-weight:bold;font-family:MyriadPro-Semibold, 'Myriad Pro';-inkscape-font-specification:'MyriadPro-Semibold, Myriad Pro Bold'"
       id="path115" />
  </g>
</svg>
