<?xml version="1.0" encoding="UTF-8" standalone="no"?>
<svg
   id="Layer_1"
   data-name="Layer 1"
   viewBox="0 0 362.30358 360.36135"
   version="1.1"
   sodipodi:docname="ArtifactsEvaluatedFunctionalETAPS_semibold_outer.svg"
   inkscape:version="1.2.2 (b0a8486541, 2022-12-01)"
   inkscape:export-filename="ArtifactsEvaluatedFunctionalETAPS_semibold_outer.svg.png"
   inkscape:export-xdpi="300"
   inkscape:export-ydpi="300"
   width="362.30359"
   height="360.36136"
   xmlns:inkscape="http://www.inkscape.org/namespaces/inkscape"
   xmlns:sodipodi="http://sodipodi.sourceforge.net/DTD/sodipodi-0.dtd"
   xmlns="http://www.w3.org/2000/svg"
   xmlns:svg="http://www.w3.org/2000/svg"
   xmlns:rdf="http://www.w3.org/1999/02/22-rdf-syntax-ns#"
   xmlns:cc="http://creativecommons.org/ns#"
   xmlns:dc="http://purl.org/dc/elements/1.1/">
  <metadata
     id="metadata98">
    <rdf:RDF>
      <cc:Work
         rdf:about="">
        <dc:format>image/svg+xml</dc:format>
        <dc:type
           rdf:resource="http://purl.org/dc/dcmitype/StillImage" />
      </cc:Work>
    </rdf:RDF>
  </metadata>
  <sodipodi:namedview
     pagecolor="#ffffff"
     bordercolor="#666666"
     borderopacity="1"
     objecttolerance="10"
     gridtolerance="10"
     guidetolerance="10"
     inkscape:pageopacity="0"
     inkscape:pageshadow="2"
     inkscape:window-width="1916"
     inkscape:window-height="972"
     id="namedview96"
     showgrid="false"
     inkscape:zoom="1.9986294"
     inkscape:cx="-9.0061719"
     inkscape:cy="177.8719"
     inkscape:window-x="0"
     inkscape:window-y="0"
     inkscape:window-maximized="1"
     inkscape:current-layer="Layer_1"
     inkscape:document-rotation="0"
     inkscape:pagecheckerboard="true"
     inkscape:showpageshadow="0"
     inkscape:deskcolor="#d1d1d1" />
  <defs
     id="defs4">
    <style
       id="style2">.cls-1,.cls-3,.cls-5{fill:#ff3a56;}.cls-2{fill:none;stroke-width:5px;}.cls-2,.cls-5{stroke:#ff3a56;}.cls-2,.cls-3,.cls-5{stroke-miterlimit:10;}.cls-3{stroke:#fff;}.cls-4,.cls-6{fill:#fff;}.cls-6{font-size:20px;font-family:MyriadPro-Semibold, Myriad Pro;font-weight:600;}</style>
  </defs>
  <g
     id="BADGE"
     transform="matrix(2,0,0,2,-0.00820765,-0.01030671)">
    <path
       id="polygon6"
       class="cls-1"
       style="fill:#ff3a56"
       d="m 156.74,128.28 3.78,12.63 -13.18,0.29 1.09,13.14 -12.96,-2.45 -1.66,13.08 -12.16,-5.09 -4.35,12.46 -10.83,-7.53 -6.86,11.27 -9.03,-9.61 -9.03,9.61 -6.86,-11.27 -10.83,7.53 -4.35,-12.46 -12.17,5.09 -1.65,-13.08 -12.96,2.45 1.09,-13.15 -13.19,-0.28 3.79,-12.63 L 11.58,125.27 17.92,113.7 6,108.07 14.62,98.08 4.13,90.09 14.62,82.1 6,72.12 17.92,66.48 11.58,54.92 24.42,51.9 20.64,39.27 33.82,38.99 32.73,25.84 45.69,28.3 47.34,15.21 59.51,20.3 63.86,7.85 l 10.83,7.52 6.86,-11.26 9.03,9.61 9.03,-9.61 6.86,11.26 10.83,-7.52 4.35,12.45 12.17,-5.09 1.65,13.09 12.96,-2.45 -1.09,13.14 13.19,0.28 -3.79,12.64 12.84,3.01 -6.34,11.56 11.92,5.64 -8.62,9.98 10.49,7.99 -10.49,7.99 8.62,9.99 -11.92,5.63 6.33,11.57 z" />
    <path
       id="polygon8"
       class="cls-2"
       style="fill:none;stroke:#ff3a56;stroke-width:5px;stroke-miterlimit:10"
       d="m 156.74,128.28 3.78,12.63 -13.18,0.29 1.09,13.14 -12.96,-2.45 -1.66,13.08 -12.16,-5.09 -4.35,12.46 -10.83,-7.53 -6.86,11.27 -9.03,-9.61 -9.03,9.61 -6.86,-11.27 -10.83,7.53 -4.35,-12.46 -12.17,5.09 -1.65,-13.08 -12.96,2.45 1.09,-13.15 -13.19,-0.28 3.79,-12.63 L 11.58,125.27 17.92,113.7 6,108.07 14.62,98.08 4.13,90.09 14.62,82.1 6,72.12 17.92,66.48 11.58,54.92 24.42,51.9 20.64,39.27 33.82,38.99 32.73,25.84 45.69,28.3 47.34,15.21 59.51,20.3 63.86,7.85 l 10.83,7.52 6.86,-11.26 9.03,9.61 9.03,-9.61 6.86,11.26 10.83,-7.52 4.35,12.45 12.17,-5.09 1.65,13.09 12.96,-2.45 -1.09,13.14 13.19,0.28 -3.79,12.64 12.84,3.01 -6.34,11.56 11.92,5.64 -8.62,9.98 10.49,7.99 -10.49,7.99 8.62,9.99 -11.92,5.63 6.33,11.57 z" />
    <path
       id="circle10"
       class="cls-3"
       style="fill:#ff3a56;stroke:#ffffff;stroke-miterlimit:10"
       d="M 167.09,90.089996 A 76.510002,76.510002 0 0 1 90.580002,166.6 76.510002,76.510002 0 0 1 14.07,90.089996 76.510002,76.510002 0 0 1 90.580002,13.579994 76.510002,76.510002 0 0 1 167.09,90.089996 Z" />
    <path
       id="circle12"
       class="cls-4"
       transform="rotate(-75.86,90.580926,90.092372)"
       style="fill:#ffffff"
       d="M 160.59,90.089996 A 70.010002,70.010002 0 0 1 90.580002,160.1 70.010002,70.010002 0 0 1 20.57,90.089996 70.010002,70.010002 0 0 1 90.580002,20.079994 70.010002,70.010002 0 0 1 160.59,90.089996 Z" />
    <path
       id="circle14"
       class="cls-5"
       style="fill:#ff3a56;stroke:#ff3a56;stroke-miterlimit:10"
       d="M 159.27,90.089996 A 68.690002,68.690002 0 0 1 90.580002,158.78 68.690002,68.690002 0 0 1 21.889999,90.089996 68.690002,68.690002 0 0 1 90.580002,21.399994 68.690002,68.690002 0 0 1 159.27,90.089996 Z" />
    <g
       aria-label="F"
       transform="rotate(57.9,-91.274366,86.340933)"
       id="text16"
       class="cls-6"
       style="font-weight:600;font-size:20px;font-family:MyriadPro-Semibold, 'Myriad Pro';fill:#ffffff">
      <path
         d="M 4.38,0 H 1.86 v -14.28 h 8.1 v 2.14 H 4.38 v 4.2 h 5.2 v 2.14 h -5.2 z"
         id="path59" />
    </g>
    <g
       aria-label="u"
       transform="rotate(48.48,-122.78619,103.36715)"
       id="text18"
       class="cls-6"
       style="font-weight:600;font-size:20px;font-family:MyriadPro-Semibold, 'Myriad Pro';fill:#ffffff">
      <path
         d="M 11.24,-10.84 V 0 H 9.26 L 8.92,-1.4 H 8.8 Q 8.26,-0.56 7.34,-0.18 6.44,0.2 5.42,0.2 3.6,0.2 2.56,-0.74 1.54,-1.68 1.54,-3.76 v -7.08 h 2.52 v 6.58 q 0,2.42 2,2.42 1.52,0 2.08,-0.94 0.58,-0.96 0.58,-2.76 v -5.3 z"
         id="path62" />
    </g>
    <g
       aria-label="n"
       transform="matrix(0.79,0.61,-0.61,0.79,44.41,136.12)"
       id="text20"
       class="cls-6"
       style="font-weight:600;font-size:20px;font-family:MyriadPro-Semibold, 'Myriad Pro';fill:#ffffff">
      <path
         d="m 7.42,-11.04 q 1.82,0 2.84,0.94 1.04,0.94 1.04,3.04 V 0 H 8.78 V -6.56 Q 8.78,-9 6.78,-9 5.26,-9 4.7,-8.04 4.14,-7.08 4.14,-5.3 V 0 H 1.62 v -10.84 h 1.94 l 0.36,1.42 h 0.14 q 0.52,-0.84 1.42,-1.22 0.92,-0.4 1.94,-0.4 z"
         id="path65" />
    </g>
    <g
       aria-label="c"
       transform="rotate(28.45,-256.12501,179.0573)"
       id="text22"
       class="cls-6"
       style="font-weight:600;font-size:20px;font-family:MyriadPro-Semibold, 'Myriad Pro';fill:#ffffff">
      <path
         d="m 6,0.2 q -2.34,0 -3.68,-1.34 -1.34,-1.34 -1.34,-4.22 0,-2 0.66,-3.24 0.68,-1.26 1.86,-1.84 1.18,-0.6 2.7,-0.6 1.02,0 1.82,0.2 0.8,0.2 1.36,0.48 L 8.64,-8.38 Q 8.02,-8.62 7.4,-8.78 6.78,-8.96 6.2,-8.96 q -2.64,0 -2.64,3.58 0,1.74 0.66,2.62 0.68,0.88 1.94,0.88 0.9,0 1.6,-0.22 0.7,-0.22 1.34,-0.6 v 2.18 Q 8.48,-0.16 7.76,0.02 7.06,0.2 6,0.2 Z"
         id="path68" />
    </g>
    <g
       aria-label="t"
       transform="rotate(20.66,-375.26734,247.98143)"
       id="text24"
       class="cls-6"
       style="font-weight:600;font-size:20px;font-family:MyriadPro-Semibold, 'Myriad Pro';fill:#ffffff">
      <path
         d="m 5.82,-1.82 q 0.46,0 0.9,-0.08 0.46,-0.1 0.84,-0.22 v 1.88 Q 7.16,-0.06 6.52,0.06 5.88,0.2 5.18,0.2 4.26,0.2 3.5,-0.1 2.74,-0.42 2.3,-1.18 1.86,-1.94 1.86,-3.3 V -8.94 H 0.4 v -1.1 l 1.6,-0.88 0.8,-2.3 h 1.58 v 2.38 h 3.08 v 1.9 H 4.38 v 5.62 q 0,0.76 0.4,1.14 0.4,0.36 1.04,0.36 z"
         id="path71" />
    </g>
    <g
       aria-label="i"
       transform="rotate(14.96,-539.64619,344.1118)"
       id="text26"
       class="cls-6"
       style="font-weight:600;font-size:20px;font-family:MyriadPro-Semibold, 'Myriad Pro';fill:#ffffff">
      <path
         d="m 2.88,-15.02 q 0.58,0 0.98,0.3 0.42,0.28 0.42,1.02 0,0.74 -0.42,1.04 -0.4,0.3 -0.98,0.3 -0.58,0 -1,-0.3 -0.4,-0.3 -0.4,-1.04 0,-0.74 0.4,-1.02 0.42,-0.3 1,-0.3 z m 1.26,4.18 V 0 H 1.62 v -10.84 z"
         id="path74" />
    </g>
    <g
       aria-label="o"
       transform="rotate(7.29,-1160.0677,675.1224)"
       id="text28"
       class="cls-6"
       style="font-weight:600;font-size:20px;font-family:MyriadPro-Semibold, 'Myriad Pro';fill:#ffffff">
      <path
         d="m 11.3,-5.44 q 0,2.7 -1.4,4.18 Q 8.5,0.2 6.1,0.2 4.62,0.2 3.46,-0.46 2.3,-1.12 1.64,-2.38 0.98,-3.64 0.98,-5.44 q 0,-2.7 1.38,-4.14 1.4,-1.46 3.8,-1.46 1.5,0 2.66,0.66 1.16,0.64 1.82,1.9 0.66,1.24 0.66,3.04 z m -7.74,0 q 0,1.72 0.6,2.66 0.62,0.94 1.98,0.94 1.36,0 1.96,-0.94 0.62,-0.94 0.62,-2.66 0,-1.72 -0.62,-2.64 Q 7.5,-9 6.12,-9 q -1.34,0 -1.96,0.92 -0.6,0.92 -0.6,2.64 z"
         id="path77" />
    </g>
    <g
       aria-label="n"
       transform="matrix(1,-0.05,0.05,1,88.63,154.14)"
       id="text30"
       class="cls-6"
       style="font-weight:600;font-size:20px;font-family:MyriadPro-Semibold, 'Myriad Pro';fill:#ffffff">
      <path
         d="m 7.42,-11.04 q 1.82,0 2.84,0.94 1.04,0.94 1.04,3.04 V 0 H 8.78 V -6.56 Q 8.78,-9 6.78,-9 5.26,-9 4.7,-8.04 4.14,-7.08 4.14,-5.3 V 0 H 1.62 v -10.84 h 1.94 l 0.36,1.42 h 0.14 q 0.52,-0.84 1.42,-1.22 0.92,-0.4 1.94,-0.4 z"
         id="path80" />
    </g>
    <g
       aria-label="a"
       transform="rotate(-13.2,713.06159,-360.62981)"
       id="text32"
       class="cls-6"
       style="font-weight:600;font-size:20px;font-family:MyriadPro-Semibold, 'Myriad Pro';fill:#ffffff">
      <path
         d="m 5.94,-11.04 q 2.1,0 3.18,0.92 1.1,0.92 1.1,2.84 V 0 H 8.44 L 7.94,-1.5 H 7.86 Q 7.16,-0.62 6.38,-0.2 5.6,0.2 4.26,0.2 2.8,0.2 1.84,-0.62 0.88,-1.44 0.88,-3.16 q 0,-1.68 1.22,-2.52 1.24,-0.84 3.74,-0.94 l 1.88,-0.06 v -0.54 q 0,-1.02 -0.5,-1.46 -0.5,-0.46 -1.4,-0.46 -0.82,0 -1.58,0.24 -0.74,0.24 -1.48,0.56 l -0.8,-1.76 q 0.8,-0.42 1.82,-0.68 1.04,-0.26 2.16,-0.26 z M 6.4,-5.08 Q 4.74,-5.02 4.1,-4.5 3.46,-4 3.46,-3.14 q 0,0.78 0.44,1.12 0.46,0.32 1.2,0.32 1.1,0 1.86,-0.62 0.76,-0.64 0.76,-1.88 v -0.92 z"
         id="path83" />
    </g>
    <g
       aria-label="l"
       transform="rotate(-20.37,475.02436,-235.81867)"
       id="text34"
       class="cls-6"
       style="font-weight:600;font-size:20px;font-family:MyriadPro-Semibold, 'Myriad Pro';fill:#ffffff">
      <path
         d="M 4.14,0 H 1.62 v -15.2 h 2.52 z"
         id="path86" />
    </g>
    <g
       transform="rotate(-24.72,397.60709,-192.74805)"
       id="text36"
       class="cls-6"
       style="font-weight:600;font-size:20px;font-family:MyriadPro-Semibold, 'Myriad Pro';fill:#ffffff" />
    <g
       transform="rotate(-28.6,348.3339,-164.35904)"
       id="text38"
       class="cls-6"
       style="font-weight:600;font-size:20px;font-family:MyriadPro-Semibold, 'Myriad Pro';fill:#ffffff" />
    <g
       aria-label="V"
       transform="matrix(0.81,-0.58,0.58,0.81,124.97,144.89)"
       id="text40"
       class="cls-6"
       style="font-weight:600;font-size:20px;font-family:MyriadPro-Semibold, 'Myriad Pro';fill:#ffffff">
      <path
         d="M 12.62,-14.28 7.68,0 H 4.94 L 0,-14.28 h 2.62 l 2.88,8.74 q 0.12,0.36 0.28,0.94 0.16,0.56 0.3,1.16 0.16,0.6 0.24,1.04 0.06,-0.44 0.2,-1.04 0.14,-0.6 0.3,-1.16 0.16,-0.58 0.3,-0.94 L 10,-14.28 Z"
         id="path91" />
    </g>
    <g
       aria-label="1"
       transform="rotate(-45.96,229.46054,-91.355517)"
       id="text42"
       class="cls-6"
       style="font-weight:600;font-size:20px;font-family:MyriadPro-Semibold, 'Myriad Pro';fill:#ffffff">
      <path
         d="M 7.82,0 H 5.3 v -8.9 q 0,-0.64 0.02,-1.36 0.02,-0.72 0.06,-1.34 -0.2,0.2 -0.5,0.48 -0.3,0.26 -0.62,0.54 l -1.6,1.28 -1.26,-1.56 4.32,-3.42 h 2.1 z"
         id="path94" />
    </g>
    <g
       aria-label="."
       transform="rotate(-53.1,200.47955,-79.209258)"
       id="text44"
       class="cls-6"
       style="font-weight:600;font-size:20px;font-family:MyriadPro-Semibold, 'Myriad Pro';fill:#ffffff">
      <path
         d="m 1.26,-1.28 q 0,-0.84 0.44,-1.18 0.44,-0.36 1.08,-0.36 0.62,0 1.08,0.36 0.46,0.34 0.46,1.18 0,0.82 -0.46,1.18 Q 3.4,0.26 2.78,0.26 2.14,0.26 1.7,-0.1 1.26,-0.46 1.26,-1.28 Z"
         id="path97" />
    </g>
    <g
       aria-label="1"
       transform="rotate(-60.27,180.52943,-64.347468)"
       id="text46"
       class="cls-6"
       style="font-weight:600;font-size:20px;font-family:MyriadPro-Semibold, 'Myriad Pro';fill:#ffffff">
      <path
         d="M 7.82,0 H 5.3 v -8.9 q 0,-0.64 0.02,-1.36 0.02,-0.72 0.06,-1.34 -0.2,0.2 -0.5,0.48 -0.3,0.26 -0.62,0.54 l -1.6,1.28 -1.26,-1.56 4.32,-3.42 h 2.1 z"
         id="path100" />
    </g>
    <g
       aria-label="A"
       transform="rotate(-83.84,70.060226,21.747964)"
       id="text48"
       class="cls-6"
       style="font-weight:600;font-size:20px;font-family:MyriadPro-Semibold, 'Myriad Pro';fill:#ffffff">
      <path
         d="M 10.68,0 9.38,-3.78 H 4 L 2.72,0 H 0 L 5.24,-14.34 H 8.16 L 13.4,0 Z M 7.48,-9.66 Q 7.4,-9.94 7.24,-10.42 7.08,-10.9 6.92,-11.4 6.78,-11.92 6.7,-12.26 q -0.1,0.4 -0.26,0.92 -0.14,0.52 -0.28,0.98 -0.14,0.46 -0.2,0.7 L 4.7,-5.98 h 4.02 z"
         id="path103" />
    </g>
    <g
       aria-label="r"
       transform="rotate(-73.12,73.237337,10.002502)"
       id="text50"
       class="cls-6"
       style="font-weight:600;font-size:20px;font-family:MyriadPro-Semibold, 'Myriad Pro';fill:#ffffff">
      <path
         d="m 7.3,-11.04 q 0.26,0 0.56,0.02 0.32,0.02 0.54,0.08 L 8.18,-8.6 Q 7.98,-8.64 7.7,-8.66 7.42,-8.7 7.2,-8.7 6.4,-8.7 5.7,-8.36 5,-8.04 4.56,-7.34 4.14,-6.66 4.14,-5.62 V 0 H 1.62 v -10.84 h 1.94 l 0.36,1.88 h 0.12 q 0.48,-0.86 1.32,-1.46 0.84,-0.62 1.94,-0.62 z"
         id="path106" />
    </g>
    <g
       aria-label="t"
       transform="rotate(-64.88,77.602961,0.2201197)"
       id="text52"
       class="cls-6"
       style="font-weight:600;font-size:20px;font-family:MyriadPro-Semibold, 'Myriad Pro';fill:#ffffff">
      <path
         d="m 5.82,-1.82 q 0.46,0 0.9,-0.08 0.46,-0.1 0.84,-0.22 v 1.88 Q 7.16,-0.06 6.52,0.06 5.88,0.2 5.18,0.2 4.26,0.2 3.5,-0.1 2.74,-0.42 2.3,-1.18 1.86,-1.94 1.86,-3.3 V -8.94 H 0.4 v -1.1 l 1.6,-0.88 0.8,-2.3 h 1.58 v 2.38 h 3.08 v 1.9 H 4.38 v 5.62 q 0,0.76 0.4,1.14 0.4,0.36 1.04,0.36 z"
         id="path109" />
    </g>
    <g
       aria-label="i"
       transform="rotate(-58.24,81.446538,-10.283734)"
       id="text54"
       class="cls-6"
       style="font-weight:600;font-size:20px;font-family:MyriadPro-Semibold, 'Myriad Pro';fill:#ffffff">
      <path
         d="m 2.88,-15.02 q 0.58,0 0.98,0.3 0.42,0.28 0.42,1.02 0,0.74 -0.42,1.04 -0.4,0.3 -0.98,0.3 -0.58,0 -1,-0.3 -0.4,-0.3 -0.4,-1.04 0,-0.74 0.4,-1.02 0.42,-0.3 1,-0.3 z m 1.26,4.18 V 0 H 1.62 v -10.84 z"
         id="path112" />
    </g>
    <g
       aria-label="f"
       transform="rotate(-52.01,86.698221,-20.855513)"
       id="text56"
       class="cls-6"
       style="font-weight:600;font-size:20px;font-family:MyriadPro-Semibold, 'Myriad Pro';fill:#ffffff">
      <path
         d="M 7.24,-8.94 H 4.62 V 0 H 2.1 V -8.94 H 0.36 v -1.2 l 1.74,-0.72 v -0.74 q 0,-2.08 0.98,-2.88 1,-0.82 2.72,-0.82 0.78,0 1.42,0.14 0.66,0.12 1.08,0.28 L 7.66,-13 q -0.34,-0.1 -0.76,-0.18 -0.4,-0.1 -0.88,-0.1 -0.72,0 -1.06,0.46 -0.34,0.44 -0.34,1.28 v 0.7 h 2.62 z"
         id="path115" />
    </g>
    <g
       aria-label="a"
       transform="rotate(-43.08,97.007177,-39.64303)"
       id="text58"
       class="cls-6"
       style="font-weight:600;font-size:20px;font-family:MyriadPro-Semibold, 'Myriad Pro';fill:#ffffff">
      <path
         d="m 5.94,-11.04 q 2.1,0 3.18,0.92 1.1,0.92 1.1,2.84 V 0 H 8.44 L 7.94,-1.5 H 7.86 Q 7.16,-0.62 6.38,-0.2 5.6,0.2 4.26,0.2 2.8,0.2 1.84,-0.62 0.88,-1.44 0.88,-3.16 q 0,-1.68 1.22,-2.52 1.24,-0.84 3.74,-0.94 l 1.88,-0.06 v -0.54 q 0,-1.02 -0.5,-1.46 -0.5,-0.46 -1.4,-0.46 -0.82,0 -1.58,0.24 -0.74,0.24 -1.48,0.56 l -0.8,-1.76 q 0.8,-0.42 1.82,-0.68 1.04,-0.26 2.16,-0.26 z M 6.4,-5.08 Q 4.74,-5.02 4.1,-4.5 3.46,-4 3.46,-3.14 q 0,0.78 0.44,1.12 0.46,0.32 1.2,0.32 1.1,0 1.86,-0.62 0.76,-0.64 0.76,-1.88 v -0.92 z"
         id="path118" />
    </g>
    <g
       aria-label="c"
       transform="matrix(0.84,-0.54,0.54,0.84,60.22,49.04)"
       id="text60"
       class="cls-6"
       style="font-weight:600;font-size:20px;font-family:MyriadPro-Semibold, 'Myriad Pro';fill:#ffffff">
      <path
         d="m 6,0.2 q -2.34,0 -3.68,-1.34 -1.34,-1.34 -1.34,-4.22 0,-2 0.66,-3.24 0.68,-1.26 1.86,-1.84 1.18,-0.6 2.7,-0.6 1.02,0 1.82,0.2 0.8,0.2 1.36,0.48 L 8.64,-8.38 Q 8.02,-8.62 7.4,-8.78 6.78,-8.96 6.2,-8.96 q -2.64,0 -2.64,3.58 0,1.74 0.66,2.62 0.68,0.88 1.94,0.88 0.9,0 1.6,-0.22 0.7,-0.22 1.34,-0.6 v 2.18 Q 8.48,-0.16 7.76,0.02 7.06,0.2 6,0.2 Z"
         id="path121" />
    </g>
    <g
       aria-label="t"
       transform="rotate(-23.63,139.82709,-139.50075)"
       id="text62"
       class="cls-6"
       style="font-weight:600;font-size:20px;font-family:MyriadPro-Semibold, 'Myriad Pro';fill:#ffffff">
      <path
         d="m 5.82,-1.82 q 0.46,0 0.9,-0.08 0.46,-0.1 0.84,-0.22 v 1.88 Q 7.16,-0.06 6.52,0.06 5.88,0.2 5.18,0.2 4.26,0.2 3.5,-0.1 2.74,-0.42 2.3,-1.18 1.86,-1.94 1.86,-3.3 V -8.94 H 0.4 v -1.1 l 1.6,-0.88 0.8,-2.3 h 1.58 v 2.38 h 3.08 v 1.9 H 4.38 v 5.62 q 0,0.76 0.4,1.14 0.4,0.36 1.04,0.36 z"
         id="path124" />
    </g>
    <g
       aria-label="s"
       transform="rotate(-15.23,192.55504,-254.35367)"
       id="text64"
       class="cls-6"
       style="font-weight:600;font-size:20px;font-family:MyriadPro-Semibold, 'Myriad Pro';fill:#ffffff">
      <path
         d="M 9,-3.14 Q 9,-1.5 7.82,-0.64 6.66,0.2 4.48,0.2 3.34,0.2 2.52,0.04 1.72,-0.12 0.96,-0.46 V -2.6 q 0.8,0.38 1.76,0.64 0.98,0.26 1.84,0.26 1.04,0 1.5,-0.32 0.46,-0.32 0.46,-0.86 0,-0.32 -0.18,-0.56 Q 6.16,-3.7 5.62,-4 5.1,-4.3 4.06,-4.74 3.02,-5.14 2.32,-5.56 1.64,-6 1.28,-6.58 0.94,-7.16 0.94,-8.08 q 0,-1.46 1.14,-2.2 1.16,-0.76 3.08,-0.76 1,0 1.88,0.2 0.9,0.2 1.8,0.6 l -0.8,1.86 Q 7.28,-8.7 6.56,-8.92 5.84,-9.14 5.08,-9.14 q -1.66,0 -1.66,0.94 0,0.34 0.2,0.58 0.22,0.24 0.74,0.52 0.54,0.26 1.52,0.64 0.96,0.38 1.66,0.8 0.7,0.4 1.08,1 Q 9,-4.06 9,-3.14 Z"
         id="path127" />
    </g>
    <g
       transform="rotate(-8.42,310.08743,-532.12141)"
       id="text66"
       class="cls-6"
       style="font-weight:600;font-size:20px;font-family:MyriadPro-Semibold, 'Myriad Pro';fill:#ffffff" />
    <g
       transform="rotate(-3.9,616.61326,-1230.3424)"
       id="text68"
       class="cls-6"
       style="font-weight:600;font-size:20px;font-family:MyriadPro-Semibold, 'Myriad Pro';fill:#ffffff" />
    <g
       aria-label="E"
       transform="rotate(3.85,-529.82984,1340.3262)"
       id="text70"
       class="cls-6"
       style="font-weight:600;font-size:20px;font-family:MyriadPro-Semibold, 'Myriad Pro';fill:#ffffff">
      <path
         d="M 9.98,0 H 1.86 v -14.28 h 8.12 v 2.14 H 4.42 v 3.64 h 5.2 v 2.14 h -5.2 v 4.2 h 5.56 z"
         id="path132" />
    </g>
    <g
       aria-label="v"
       transform="rotate(14.76,-102.04578,398.85807)"
       id="text72"
       class="cls-6"
       style="font-weight:600;font-size:20px;font-family:MyriadPro-Semibold, 'Myriad Pro';fill:#ffffff">
      <path
         d="M 4.12,0 0,-10.84 h 2.66 l 2.16,6.26 Q 5.02,-4 5.18,-3.3 5.36,-2.6 5.4,-2.12 H 5.48 Q 5.54,-2.62 5.72,-3.3 5.9,-4 6.1,-4.58 l 2.16,-6.26 h 2.66 L 6.8,0 Z"
         id="path135" />
    </g>
    <g
       aria-label="a"
       transform="rotate(25.77,-37.013377,255.47705)"
       id="text74"
       class="cls-6"
       style="font-weight:600;font-size:20px;font-family:MyriadPro-Semibold, 'Myriad Pro';fill:#ffffff">
      <path
         d="m 5.94,-11.04 q 2.1,0 3.18,0.92 1.1,0.92 1.1,2.84 V 0 H 8.44 L 7.94,-1.5 H 7.86 Q 7.16,-0.62 6.38,-0.2 5.6,0.2 4.26,0.2 2.8,0.2 1.84,-0.62 0.88,-1.44 0.88,-3.16 q 0,-1.68 1.22,-2.52 1.24,-0.84 3.74,-0.94 l 1.88,-0.06 v -0.54 q 0,-1.02 -0.5,-1.46 -0.5,-0.46 -1.4,-0.46 -0.82,0 -1.58,0.24 -0.74,0.24 -1.48,0.56 l -0.8,-1.76 q 0.8,-0.42 1.82,-0.68 1.04,-0.26 2.16,-0.26 z M 6.4,-5.08 Q 4.74,-5.02 4.1,-4.5 3.46,-4 3.46,-3.14 q 0,0.78 0.44,1.12 0.46,0.32 1.2,0.32 1.1,0 1.86,-0.62 0.76,-0.64 0.76,-1.88 v -0.92 z"
         id="path138" />
    </g>
    <g
       aria-label="l"
       transform="rotate(34.08,-16.754866,212.18447)"
       id="text76"
       class="cls-6"
       style="font-weight:600;font-size:20px;font-family:MyriadPro-Semibold, 'Myriad Pro';fill:#ffffff">
      <path
         d="M 4.14,0 H 1.62 v -15.2 h 2.52 z"
         id="path141" />
    </g>
    <g
       aria-label="u"
       transform="rotate(43.04,-1.103841,176.30113)"
       id="text78"
       class="cls-6"
       style="font-weight:600;font-size:20px;font-family:MyriadPro-Semibold, 'Myriad Pro';fill:#ffffff">
      <path
         d="M 11.24,-10.84 V 0 H 9.26 L 8.92,-1.4 H 8.8 Q 8.26,-0.56 7.34,-0.18 6.44,0.2 5.42,0.2 3.6,0.2 2.56,-0.74 1.54,-1.68 1.54,-3.76 v -7.08 h 2.52 v 6.58 q 0,2.42 2,2.42 1.52,0 2.08,-0.94 0.58,-0.96 0.58,-2.76 v -5.3 z"
         id="path144" />
    </g>
    <g
       aria-label="a"
       transform="matrix(0.58,0.82,-0.82,0.58,127.88,55.52)"
       id="text80"
       class="cls-6"
       style="font-weight:600;font-size:20px;font-family:MyriadPro-Semibold, 'Myriad Pro';fill:#ffffff">
      <path
         d="m 5.94,-11.04 q 2.1,0 3.18,0.92 1.1,0.92 1.1,2.84 V 0 H 8.44 L 7.94,-1.5 H 7.86 Q 7.16,-0.62 6.38,-0.2 5.6,0.2 4.26,0.2 2.8,0.2 1.84,-0.62 0.88,-1.44 0.88,-3.16 q 0,-1.68 1.22,-2.52 1.24,-0.84 3.74,-0.94 l 1.88,-0.06 v -0.54 q 0,-1.02 -0.5,-1.46 -0.5,-0.46 -1.4,-0.46 -0.82,0 -1.58,0.24 -0.74,0.24 -1.48,0.56 l -0.8,-1.76 q 0.8,-0.42 1.82,-0.68 1.04,-0.26 2.16,-0.26 z M 6.4,-5.08 Q 4.74,-5.02 4.1,-4.5 3.46,-4 3.46,-3.14 q 0,0.78 0.44,1.12 0.46,0.32 1.2,0.32 1.1,0 1.86,-0.62 0.76,-0.64 0.76,-1.88 v -0.92 z"
         id="path147" />
    </g>
    <g
       aria-label="t"
       transform="rotate(63.93,15.927483,138.47044)"
       id="text82"
       class="cls-6"
       style="font-weight:600;font-size:20px;font-family:MyriadPro-Semibold, 'Myriad Pro';fill:#ffffff">
      <path
         d="m 5.82,-1.82 q 0.46,0 0.9,-0.08 0.46,-0.1 0.84,-0.22 v 1.88 Q 7.16,-0.06 6.52,0.06 5.88,0.2 5.18,0.2 4.26,0.2 3.5,-0.1 2.74,-0.42 2.3,-1.18 1.86,-1.94 1.86,-3.3 V -8.94 H 0.4 v -1.1 l 1.6,-0.88 0.8,-2.3 h 1.58 v 2.38 h 3.08 v 1.9 H 4.38 v 5.62 q 0,0.76 0.4,1.14 0.4,0.36 1.04,0.36 z"
         id="path150" />
    </g>
    <g
       aria-label="e"
       transform="matrix(0.29,0.96,-0.96,0.29,136.28,68.97)"
       id="text84"
       class="cls-6"
       style="font-weight:600;font-size:20px;font-family:MyriadPro-Semibold, 'Myriad Pro';fill:#ffffff">
      <path
         d="m 5.98,-11.04 q 2.18,0 3.44,1.3 1.28,1.3 1.28,3.62 v 1.28 H 3.54 q 0.04,1.48 0.82,2.3 0.78,0.8 2.16,0.8 1.04,0 1.88,-0.2 0.84,-0.22 1.72,-0.62 v 2.02 Q 9.32,-0.16 8.46,0.02 7.6,0.2 6.4,0.2 4.82,0.2 3.58,-0.4 2.36,-1.02 1.66,-2.26 0.98,-3.5 0.98,-5.34 q 0,-2.78 1.38,-4.24 1.38,-1.46 3.62,-1.46 z m 0,1.86 q -1.02,0 -1.66,0.66 Q 3.7,-7.88 3.6,-6.6 H 8.26 Q 8.24,-7.72 7.68,-8.44 7.14,-9.18 5.98,-9.18 Z"
         id="path153" />
    </g>
    <g
       aria-label="d"
       transform="rotate(85.24,27.120582,114.70556)"
       id="text86"
       class="cls-6"
       style="font-weight:600;font-size:20px;font-family:MyriadPro-Semibold, 'Myriad Pro';fill:#ffffff">
      <path
         d="M 5.2,0.2 Q 3.3,0.2 2.14,-1.22 0.98,-2.64 0.98,-5.4 q 0,-2.8 1.18,-4.22 1.18,-1.42 3.1,-1.42 1.2,0 1.96,0.46 0.78,0.46 1.24,1.12 H 8.58 Q 8.52,-9.74 8.46,-10.32 8.4,-10.9 8.4,-11.4 v -3.8 h 2.52 V 0 H 8.96 L 8.5,-1.42 H 8.4 Q 7.94,-0.74 7.18,-0.26 6.42,0.2 5.2,0.2 Z m 0.76,-2.04 q 1.4,0 1.96,-0.8 0.58,-0.8 0.6,-2.42 v -0.32 q 0,-1.74 -0.56,-2.66 -0.54,-0.94 -2.04,-0.94 -1.16,0 -1.78,0.96 -0.6,0.94 -0.6,2.66 0,1.72 0.62,2.62 0.62,0.9 1.8,0.9 z"
         id="path156" />
    </g>
  </g>
  <path
     class="cls-4"
     d="m 187.01179,168.28969 h -6.14 v 7.84 h 6.14 a 4.34,4.34 0 0 0 2.98,-1.08 3.7,3.7 0 0 0 1.2,-2.86 3.6,3.6 0 0 0 -1.2,-2.8 4.36,4.36 0 0 0 -2.98,-1.1 z"
     id="path89"
     style="stroke-width:2" />
  <polygon
     class="cls-4"
     points="75.03,91.55 80.25,91.55 77.65,84.61 "
     id="polygon91"
     transform="matrix(2,0,0,2,-0.00820765,-0.01030671)" />
  <path
     class="cls-4"
     d="m 181.15179,111.10969 v 0 c -38.30662,-0.16604 -69.49467,30.75338 -69.66,69.06 v 0 c 0.16534,38.30982 31.35014,69.23496 69.66,69.08 v 0 c 38.30986,0.155 69.49466,-30.77018 69.66,-69.08 v 0 c -0.16532,-38.30662 -31.35338,-69.22604 -69.66,-69.06 z"
     id="path93"
     sodipodi:nodetypes="sssssssss"
     style="stroke-width:2" />
  <g
     aria-label="ETAPS"
     id="text933"
     style="font-size:40px;line-height:125%;font-family:Sans;text-align:center;letter-spacing:0px;word-spacing:0px;text-anchor:middle;fill:#ff3a56;stroke-width:2px">
    <path
       d="m 141.43176,194.46068 h -16.44 v -28.56 h 16.44 v 4.96 h -10.4 v 6.28 h 9.68 v 4.96 h -9.68 v 7.36 h 10.4 z"
       style="font-weight:bold;font-family:MyriadPro-Semibold, 'Myriad Pro';-inkscape-font-specification:'MyriadPro-Semibold, Myriad Pro Bold'"
       id="path159" />
    <path
       d="m 158.39174,194.46068 h -6.04 v -23.52 h -7.76 v -5.04 h 21.56 v 5.04 h -7.76 z"
       style="font-weight:bold;font-family:MyriadPro-Semibold, 'Myriad Pro';-inkscape-font-specification:'MyriadPro-Semibold, Myriad Pro Bold'"
       id="path161" />
    <path
       d="m 185.23177,194.46068 -2.08,-6.8 h -10.4 l -2.08,6.8 h -6.52 l 10.08,-28.68 h 7.4 l 10.12,28.68 z m -5.6,-18.52 q -0.2,-0.68 -0.52,-1.72 -0.32,-1.04 -0.64,-2.12 -0.32,-1.08 -0.52,-1.88 -0.2,0.8 -0.56,2 -0.32,1.16 -0.64,2.24 -0.28,1.04 -0.44,1.48 l -2.04,6.64 h 7.44 z"
       style="font-weight:bold;font-family:MyriadPro-Semibold, 'Myriad Pro';-inkscape-font-specification:'MyriadPro-Semibold, Myriad Pro Bold'"
       id="path163" />
    <path
       d="m 204.47179,165.90068 q 5.52,0 8.04,2.4 2.56,2.36 2.56,6.52 0,2.48 -1.04,4.68 -1.04,2.16 -3.48,3.48 -2.4,1.32 -6.56,1.32 h -2.6 v 10.16 h -6.04 v -28.56 z m -0.32,4.96 h -2.76 v 8.48 h 2 q 2.56,0 4.04,-1 1.52,-1.04 1.52,-3.32 0,-4.16 -4.8,-4.16 z"
       style="font-weight:bold;font-family:MyriadPro-Semibold, 'Myriad Pro';-inkscape-font-specification:'MyriadPro-Semibold, Myriad Pro Bold'"
       id="path165" />
    <path
       d="m 237.3118,186.54068 q 0,3.8 -2.76,6.08 -2.72,2.24 -7.76,2.24 -4.52,0 -8.08,-1.72 v -5.64 q 2.04,0.88 4.2,1.64 2.2,0.72 4.36,0.72 2.24,0 3.16,-0.84 0.96,-0.88 0.96,-2.2 0,-1.08 -0.76,-1.84 -0.72,-0.76 -1.96,-1.4 -1.24,-0.68 -2.84,-1.44 -1,-0.48 -2.16,-1.12 -1.16,-0.68 -2.24,-1.64 -1.04,-1 -1.72,-2.4 -0.68,-1.4 -0.68,-3.36 0,-3.84 2.6,-5.96 2.6,-2.16 7.08,-2.16 2.24,0 4.24,0.52 2.04,0.52 4.24,1.48 l -1.96,4.72 q -1.96,-0.8 -3.52,-1.24 -1.56,-0.44 -3.2,-0.44 -1.72,0 -2.64,0.8 -0.92,0.8 -0.92,2.08 0,1.52 1.36,2.4 1.36,0.88 4.04,2.16 2.2,1.04 3.72,2.16 1.56,1.12 2.4,2.64 0.84,1.52 0.84,3.76 z"
       style="font-weight:bold;font-family:MyriadPro-Semibold, 'Myriad Pro';-inkscape-font-specification:'MyriadPro-Semibold, Myriad Pro Bold'"
       id="path167" />
  </g>
</svg>
