<!DOCTYPE svg PUBLIC "-//W3C//DTD SVG 1.1//EN" "http://www.w3.org/Graphics/SVG/1.1/DTD/svg11.dtd">
<!-- Uploaded to: SVG Repo, www.svgrepo.com, Transformed by: SVG Repo Mixer Tools -->
<svg fill="#ffffff" version="1.1" id="Capa_1" xmlns="http://www.w3.org/2000/svg" xmlns:xlink="http://www.w3.org/1999/xlink" width="800px" height="800px" viewBox="0 0 475.652 475.653" xml:space="preserve">
<g id="SVGRepo_bgCarrier" stroke-width="0"/>
<g id="SVGRepo_tracerCarrier" stroke-linecap="round" stroke-linejoin="round"/>
<g id="SVGRepo_iconCarrier"> <g> <path d="M468.86,128.452L243.999,1.613c-3.813-2.15-8.471-2.15-12.281-0.001L6.794,128.451c-3.93,2.216-6.36,6.377-6.36,10.888 v24.921c0,3.315,1.317,6.495,3.662,8.839s5.524,3.661,8.84,3.661l22.337-0.003v202.425c-0.001,0.063-0.01,0.127-0.01,0.192v22.606 h-22.28c-6.903,0-12.5,5.597-12.5,12.5v48.672c0,6.902,5.597,12.5,12.5,12.5h449.734c6.904,0,12.5-5.598,12.5-12.5v-48.672 c0-6.903-5.596-12.5-12.5-12.5h-22.275v-22.606c0-0.072-0.01-0.141-0.012-0.213v-202.46l22.289-0.003 c6.902-0.001,12.498-5.597,12.498-12.5V139.34C475.22,134.828,472.79,130.667,468.86,128.452z M130.582,177.754v194.294H60.272 V177.754H130.582z M415.431,177.754v194.294h-70.305V177.754H415.431z M332.626,397.048h82.816v17.434 c0,6.902,5.596,12.5,12.5,12.5h22.275v23.672H25.484v-23.672h22.279c6.903,0,12.5-5.598,12.5-12.5v-17.434h82.818 c6.903,0,12.5-5.596,12.5-12.5V176.741l22.119-0.003v207.811c0,6.904,5.597,12.5,12.5,12.5h95.307c6.902,0,12.5-5.596,12.5-12.5 V176.721l22.119-0.003v207.831C320.126,391.452,325.724,397.048,332.626,397.048z M273.008,177.754v194.294h-70.307V177.754 H273.008z M450.22,151.7l-424.785,0.058v-5.117l212.421-119.79l212.362,119.79v5.059H450.22z"/> </g> </g>
</svg>